<svg width="200" height="200" fill="none" xmlns="http://www.w3.org/2000/svg"><path d="M86.926 149.025l12.667 16.907 13.201-17.428v48.447h86.549v-62.977h-9.441V72.815h9.441V4.341h-73.005L99.841 51.453 73.39 4.34H.376v68.474h9.442v61.159H.376v62.977h86.55v-47.926z" fill="#000"/><path d="M67.015 104.905l32.624 43.544 33.066-43.652v39.713h-9.4v41.905h65.528V144.51h-9.442V62.28h9.442V14.876h-56.355L99.833 72.921 67.244 14.877H10.887V62.28h9.441v82.231h-9.44v41.905h65.527V144.51h-9.4v-39.605z" fill="#fff"/><path d="M62.902 92.55v56.083h9.4v33.659H15v-33.659h9.441V58.156H15V19h49.84l34.99 62.321L134.88 19h49.839v39.156h-9.442v90.477h9.442v33.659h-57.302v-33.659h9.4V92.55l-37.16 49.057L62.901 92.55z" fill="#752F8A"/></svg>