<?xml version="1.0" encoding="UTF-8"?>
<svg width="200px" height="200px" viewBox="0 0 200 200" version="1.1" xmlns="http://www.w3.org/2000/svg" xmlns:xlink="http://www.w3.org/1999/xlink">
    <!-- Generator: Sketch 54.1 (76490) - https://sketchapp.com -->
    <title>morningside</title>
    <desc>Created with Sketch.</desc>
    <g id="morningside" stroke="none" stroke-width="1" fill="none" fill-rule="evenodd">
        <g id="morningside_BGD">
            <g id="morningside" transform="translate(0.000000, 56.000000)">
                <path d="M191.227646,56.4768847 C191.220839,56.4656246 191.213922,56.4544049 191.206897,56.4432258 C186.724138,49.2083871 180,44.3277419 172.356322,40.8825806 C165.747126,37.8967742 158.793103,36.0019355 151.609195,34.9109677 C151.896552,32.7290323 152.298851,30.7767742 153.793103,29.0541935 C156.091954,26.2406452 159.195402,24.92 162.298851,23.2548387 C156.37931,23.3122581 150.402299,26.1832258 145.229885,28.8245161 C145.517241,27.9632258 145.804598,27.1019355 145.977011,26.2406452 C145.91954,25.0922581 145.402299,23.8864516 145.057471,22.7380645 C141.321839,23.6567742 136.37931,25.0922581 132.701149,23.5993548 C129.942529,22.2212903 130.747126,19.6948387 131.551724,17.3406452 C130.114943,17.3980645 128.275862,17.6277419 126.954023,16.823871 C125.689655,16.0774194 125.344828,14.5845161 125.45977,13.263871 C125.689655,10.9096774 126.83908,8.67032258 127.758621,6.54580645 C125.977011,6.89032258 124.367816,7.40709677 123.045977,8.44064516 C119.425287,11.4264516 116.551724,15.3309677 114.08046,19.2354839 C113.218391,17.2258065 112.068966,15.8477419 110.402299,14.4122581 C110.172414,16.4793548 110.229885,18.3167742 108.505747,19.8096774 C105.862069,22.1064516 101.724138,21.9341935 98.4482759,21.7619355 C97.5287356,22.9103226 96.6666667,24.0012903 95.8045977,25.1496774 C105,26.4129032 114.08046,28.5948387 122.873563,31.5806452 C136.264368,36.1741935 148.793103,42.5477419 159.310345,52.1367742 C149.310345,51.8496774 139.54023,53.4 129.827586,55.5245161 C128.793103,55.8690323 127.988506,55.4096774 127.011494,55.0651613 C122.528736,53.2851613 118.103448,51.3329032 113.735632,49.3232258 C109.310345,47.1987097 105,45.303871 101.034483,42.3754839 C98.8505747,46.3948387 95.6321839,50.2419355 90.8045977,50.8735484 C85.6321839,51.4477419 81.3793103,48.2896774 77.6436782,45.1316129 C74.7701149,54.8354839 67.5862069,62.5870968 58.8505747,67.4103226 C53.908046,70.1664516 48.6206897,71.8316129 43.1609195,73.3245161 C50.1724138,74.4154839 57.2413793,73.4393548 63.6781609,70.4535484 C70.2298851,67.4103226 75.6321839,62.7019355 80.1149425,57.0174194 C83.2183908,58.9696774 86.5517241,60.2329032 90.2298851,60.0032258 C95,59.7735484 98.6781609,57.2470968 101.954023,54.0316129 C106.264368,56.5580645 110.574713,58.9696774 114.712644,61.6683871 C111.091954,64.4819355 107.988506,67.64 107.298851,72.4058065 C106.562023,77.6641063 116.091271,86.5339563 119.334873,88.2995293 C115.564732,88.2486875 107.990607,87.3609631 104.289795,86.9125977 C102.565657,86.6829202 100.574713,85.7606452 98.9655172,85.1290323 C97.0689655,83.636129 95.5172414,81.6264516 94.0804598,79.7316129 C93.045977,78.3535484 92.183908,76.6309677 90.862069,75.4825806 C89.3678161,74.6787097 87.4712644,74.5064516 85.8045977,74.1045161 C84.0804598,74.8509677 82.2988506,75.4825806 80.4022989,75.6548387 C68.1609195,77.0903226 55.862069,78.296129 43.6206897,79.5019355 C41.7241379,79.6167742 40.5172414,80.7077419 38.908046,81.5690323 C32.8735632,84.8419355 25.3448276,86.2774194 18.7931034,83.6935484 C13.5632184,81.7412903 10.8275862,78.1477419 7.32183908,74.0135484 C8.75862069,73.3245161 8.90804598,73.2335484 10.5747126,73.6354839 C15.2298851,74.3819355 20.7126437,73.7264516 25.137931,71.6019355 C22.7241379,69.7645161 18.5632184,67.0993548 15.5172414,67.2141935 C12.1264368,67.6735484 9.73563218,69.6258065 6.74712644,71.176129 C4.85057471,69.3387097 3.06896552,68.616129 2.14942529,66.0896774 C0.827586207,62.5870968 1.34482759,58.8548387 3.01149425,55.5819355 C3.93103448,53.8593548 4.90804598,52.1367742 6.74712644,51.2180645 C18.7586207,44.8445161 29.7126437,39.4709677 41.7241379,33.0974194 C44.0229885,31.8341935 46.2068966,31.0303226 47.9310345,28.9632258 C49.0229885,27.9296774 50.1149425,25.9774194 51.7241379,25.8625806 C57.4712644,24.943871 63.1034483,23.2787097 67.2413793,18.9722581 C70.9770115,19.2593548 74.8275862,18.9722581 78.2183908,17.3070968 C79.9425287,15.9864516 81.1494253,14.0916129 82.8735632,12.7709677 C90.1149425,6.74193548 97.3103448,3.9283871 106.390805,2.49290323 C105.241379,4.27290323 104.289795,5.81420898 104.289795,7.29199219 C107.853013,6.37328251 110.625508,7.07152879 113.614014,9.19604492 C116.774933,5.17669008 121.535751,2.04050246 126.593222,1.00695407 C133.547245,-0.371110446 136.940169,1.05741935 143.664307,2.49290323 C138.894192,5.47870968 135.436782,7.63677419 131.643678,12.0006452 C133.075195,12.7709677 136.856863,13.7470968 139.040771,12.7709677 C140.707438,12.0245161 141.643678,10.9909677 143.310345,10.1296774 C142.965517,11.8522581 142.62069,12.6322581 142.16092,14.3548387 C141.758621,15.8477419 140.436782,18.0535484 139.517241,19.2019355 C140.83908,18.6277419 144.850575,17.1109677 145.712644,15.9051613 C146.344828,14.24 145.920309,13.7232258 146.265137,12.0006452 C148.851344,14.4696774 150.804598,16.2735484 151.896552,19.776129 C157.298851,17.1922581 163.275862,16.9051613 168.908046,19.0296774 C175.057471,21.2690323 176.022989,23.5180645 180.735632,27.7670968 C172.494253,26.4225806 168.195402,27.7335484 161.356322,30.7193548 C168.08046,32.2696774 175.517241,35.5090323 181.436782,39.1264516 C189.252874,43.7774194 194.574713,48.4954839 198.712644,56.5916129 C197.678161,56.4767742 197.701149,57.3045161 196.724138,57.1896774 C194.877545,56.9230766 193.045381,56.6854791 191.227646,56.4768847 Z M103.908046,7.61290323 C102.758621,10.0819355 100.954023,14.5509677 100.781609,17.3070968 C101.873563,16.7329032 105.655172,15.6754839 105.942529,14.24 C106.344828,12.46 104.425287,9.27806452 103.908046,7.61290323 Z" id="Shape" fill="#FFFFFF"></path>
                <path d="M125.977011,0.803870968 C132.931034,-0.574193548 139.195402,0.746451613 145.91954,2.18193548 C141.149425,5.16774194 136.436782,7.63677419 132.643678,12.0006452 C134.885057,12.2877419 137.183908,12.7470968 139.367816,11.7709677 C141.034483,11.0245161 142.643678,9.99096774 144.310345,9.12967742 C143.965517,10.8522581 143.62069,12.6322581 143.16092,14.3548387 C142.758621,15.8477419 141.436782,17.0535484 140.517241,18.2019355 C141.83908,17.6277419 143.850575,17.1109677 144.712644,15.9051613 C145.344828,14.24 145.402299,12.4025806 145.747126,10.68 C148.333333,13.1490323 150.804598,15.2735484 151.896552,18.776129 C157.298851,16.1922581 163.275862,15.9051613 168.908046,18.0296774 C175.057471,20.2690323 179.022989,24.5180645 183.735632,28.7670968 C176.494253,28.4225806 169.195402,27.7335484 162.356322,30.7193548 C169.08046,32.2696774 175.517241,34.5090323 181.436782,38.1264516 C189.252874,42.7774194 195.574713,49.4954839 199.712644,57.5916129 C198.678161,57.4767742 197.701149,57.3045161 196.724138,57.1896774 C193.448276,51.3329032 188.965517,46.3948387 183.505747,42.4329032 C175.91954,37.0354839 166.896552,33.7625806 157.758621,32.4993548 C158.678161,30.8341935 159.655172,29.3987097 161.436782,28.5948387 C166.091954,26.2406452 172.126437,26.0109677 177.183908,26.0683871 C173.850575,23.2548387 170.402299,20.8432258 166.149425,19.6948387 C160.172414,17.9722581 153.333333,19.6374194 148.850575,23.943871 C149.195402,22.8529032 149.597701,21.8767742 149.655172,20.7858065 C149.597701,18.9483871 148.563218,17.3980645 147.701149,15.8477419 C146.724138,17.5703226 145.689655,19.0058065 143.735632,19.6948387 C140.747126,20.7858065 137.068966,21.4748387 133.965517,20.383871 C136.091954,18.0296774 138.793103,16.4219355 141.034483,14.1825806 C137.413793,15.1012903 133.62069,15.1587097 130.172414,13.7232258 C129.712644,12.1729032 130.689655,10.9096774 131.609195,9.76129032 C133.793103,7.29225806 136.724138,5.34 139.425287,3.44516129 C134.137931,2.58387097 128.850575,2.29677419 123.735632,4.1916129 C119.425287,5.74193548 116.034483,8.9 114.08046,13.0341935 C113.16092,11.7709677 112.241379,10.3354839 110.804598,9.58903226 C109.655172,8.95741935 108.103448,8.95741935 106.83908,8.78516129 C107.356322,11.1967742 108.275862,13.7806452 107.011494,16.1348387 C105.862069,18.3741935 103.045977,19.0632258 100.804598,18.4316129 C99.5977011,17.8 99.5977011,16.1922581 99.7126437,15.043871 C100.172414,11.5987097 101.83908,8.15354839 103.333333,5.05290323 C96.4367816,6.71806452 89.2528736,9.5316129 83.908046,14.2974194 C82.2988506,15.6754839 81.0344828,17.9148387 79.0229885,18.7187097 C75.6896552,20.1541935 72.1264368,20.6135484 68.5057471,20.4412903 C64.3103448,24.1735484 59.0804598,26.1258065 53.5632184,26.9870968 C51.7241379,27.1019355 50.9195402,28.3651613 49.7701149,29.6283871 C48.4482759,31.063871 48.2183908,32.843871 47.3563218,34.6812903 C46.5517241,36.4612903 45.1724138,37.8393548 43.5057471,38.7580645 C40.0574713,40.5954839 36.2643678,41.8012903 32.9310345,43.8109677 C30.4022989,45.3612903 29.8850575,48.5767742 29.3103448,51.2180645 C28.7356322,54.3187097 27.3563218,57.1896774 24.8275862,59.1993548 C23.1034483,60.5774194 20.9195402,60.9793548 19.3678161,62.4148387 C18.4482759,63.3335484 17.7586207,64.5967742 17.0689655,65.6877419 C20.5747126,66.5490323 23.8505747,67.5825806 26.3793103,70.3387097 C27.4137931,71.8890323 27.7011494,73.5541935 29.2528736,74.76 C30.9770115,73.6116129 32.3563218,71.9464516 34.6551724,72.2335484 C37.9885057,72.6354839 40.1149425,75.736129 41.8390805,78.2625806 C54.1954023,77.1141935 66.4942529,75.8509677 78.7931034,74.4729032 C81.2068966,74.1858065 83.5057471,73.8412903 85.5172414,72.3483871 C87.5862069,70.9703226 88.7356322,68.9032258 89.7126437,66.663871 C92.0689655,66.1470968 94.4827586,65.6877419 96.8390805,65.2283871 C95.9770115,66.2045161 95.1149425,67.1806452 94.1954023,68.1567742 C93.3333333,68.3290323 92.4712644,68.443871 91.6091954,68.616129 C90.862069,70.1664516 90.1724138,71.6593548 89.4252874,73.2096774 C91.2643678,73.8412903 92.8735632,74.4154839 93.9655172,76.1954839 C96.7816092,80.5019355 99.7126437,84.4064516 104.310345,86.9329032 C102.586207,86.7032258 100.574713,86.7606452 98.9655172,86.1290323 C97.0689655,84.636129 95.5172414,82.6264516 94.0804598,80.7316129 C93.045977,79.3535484 92.183908,77.6309677 90.862069,76.4825806 C89.3678161,75.6787097 87.4712644,75.5064516 85.8045977,75.1045161 C84.0804598,75.8509677 82.2988506,76.4825806 80.4022989,76.6548387 C68.1609195,78.0903226 55.862069,79.296129 43.6206897,80.5019355 C41.7241379,80.6167742 40.5172414,81.7077419 38.908046,82.5690323 C32.8735632,85.8419355 25.3448276,87.2774194 18.7931034,84.6935484 C13.5632184,82.7412903 9.82758621,78.1477419 6.32183908,74.0135484 C7.75862069,73.3245161 8.90804598,72.2335484 10.5747126,72.6354839 C15.2298851,73.3819355 19.7126437,73.7264516 24.137931,71.6019355 C21.7241379,69.7645161 18.5632184,68.0993548 15.5172414,68.2141935 C12.1264368,68.6735484 8.73563218,70.6258065 5.74712644,72.176129 C3.85057471,70.3387097 2.06896552,68.616129 1.14942529,66.0896774 C-0.172413793,62.5870968 0.344827586,58.8548387 2.01149425,55.5819355 C2.93103448,53.8593548 3.90804598,52.1367742 5.74712644,51.2180645 C17.7586207,44.8445161 29.7126437,38.4709677 41.7241379,32.0974194 C44.0229885,30.8341935 46.2068966,30.0303226 47.9310345,27.9632258 C49.0229885,26.9296774 50.1149425,24.9774194 51.7241379,24.8625806 C57.4712644,23.943871 63.1034483,22.2787097 67.2413793,17.9722581 C70.9770115,18.2593548 74.8275862,17.9722581 78.2183908,16.3070968 C79.9425287,14.9864516 81.1494253,13.0916129 82.8735632,11.7709677 C90.1149425,5.74193548 99.3103448,2.9283871 108.390805,1.49290323 C107.241379,3.27290323 106.034483,5.11032258 104.827586,6.83290323 C108.390805,5.91419355 110.632184,6.25870968 113.62069,8.38322581 C116.781609,4.36387097 120.91954,1.83741935 125.977011,0.803870968 Z M103.908046,8.61290323 C102.758621,11.0819355 101.954023,13.5509677 101.781609,16.3070968 C102.873563,15.7329032 104.655172,15.6754839 104.942529,14.24 C105.344828,12.46 104.425287,10.2780645 103.908046,8.61290323 Z" id="Shape" fill="#0D0C0C" fill-rule="nonzero"></path>
                <path d="M73.5057471,6.43096774 C74.0229885,8.09612903 74.3678161,9.70387097 74.5402299,11.4264516 C76.954023,10.1058065 78.9655172,9.5316129 81.7816092,9.30193548 C80.3448276,10.7374194 79.0804598,12.3451613 77.5287356,13.6658065 C74.5977011,15.3883871 71.3793103,15.4458065 68.1034483,15.216129 C69.4252874,13.9529032 70.7471264,12.9193548 71.7241379,11.3116129 C72.6436782,9.76129032 72.9885057,8.15354839 73.5057471,6.43096774 Z" id="Shape" fill="#0D0C0C" fill-rule="nonzero"></path>
                <path d="M127.758621,6.54580645 C126.83908,8.67032258 125.689655,10.9096774 125.45977,13.263871 C125.344828,14.5845161 125.689655,16.0774194 126.954023,16.823871 C128.275862,17.6277419 130.114943,17.3980645 131.551724,17.3406452 C130.747126,19.6948387 129.942529,22.2212903 132.701149,23.5993548 C136.37931,25.0922581 141.321839,23.6567742 145.057471,22.7380645 C145.402299,23.8864516 145.91954,25.0922581 145.977011,26.2406452 C145.804598,27.1019355 145.517241,27.9632258 145.229885,28.8245161 C150.402299,26.1832258 156.37931,23.3122581 162.298851,23.2548387 C159.195402,24.92 156.091954,26.2406452 153.793103,29.0541935 C152.298851,30.7767742 151.896552,32.7290323 151.609195,34.9109677 C158.793103,36.0019355 165.747126,37.8967742 172.356322,40.8825806 C180,44.3277419 186.724138,49.2083871 191.206897,56.4432258 C176.37931,54.8354839 161.436782,54.9503226 146.609195,56.3283871 C141.206897,56.4432258 135.804598,56.8451613 130.517241,58.0509677 C128.505747,58.6825806 127.011494,57.7064516 125.172414,57.0174194 C117.241379,53.6870968 109.195402,50.3567742 101.83908,46.0503226 C99.2528736,49.7251613 96.0344828,52.7109677 91.3793103,53.3425806 C86.6091954,53.9741935 82.6436782,52.0219355 78.8505747,49.3806452 C75.3448276,57.6490323 69.137931,64.1948387 61.4942529,68.8458065 C69.0229885,65.6303226 74.9425287,60.0606452 79.7701149,53.5148387 C82.7586207,56.0987097 86.1494253,57.8787097 90.2298851,57.5916129 C95,57.2470968 98.3908046,54.2612903 101.436782,50.9309677 C106.206897,53.7445161 111.206897,56.3858065 115.804598,59.4864516 C117.126437,60.2903226 117.068966,61.496129 117.413793,62.8741935 C114.712644,64.7690323 112.126437,66.7787097 110.632184,69.8219355 C109.08046,72.8651613 109.367816,76.3677419 110.91954,79.3535484 C112.988506,83.4303226 116.321839,86.1290323 120.057471,88.5980645 C117.931034,88.196129 115.229885,88.6554839 113.678161,86.9329032 C109.597701,83.2006452 106.494253,78.1477419 107.298851,72.4058065 C107.988506,67.64 111.091954,64.4819355 114.712644,61.6683871 C110.574713,58.9696774 106.264368,56.5580645 101.954023,54.0316129 C98.6781609,57.2470968 95,59.7735484 90.2298851,60.0032258 C86.5517241,60.2329032 83.2183908,58.9696774 80.1149425,57.0174194 C75.6321839,62.7019355 70.2298851,67.4103226 63.6781609,70.4535484 C57.2413793,73.4393548 50.1724138,74.4154839 43.1609195,73.3245161 C48.6206897,71.8316129 53.908046,70.1664516 58.8505747,67.4103226 C67.5862069,62.5870968 74.7701149,54.8354839 77.6436782,45.1316129 C81.3793103,48.2896774 85.6321839,51.4477419 90.8045977,50.8735484 C95.6321839,50.2419355 98.8505747,46.3948387 101.034483,42.3754839 C105,45.303871 109.310345,47.1987097 113.735632,49.3232258 C118.103448,51.3329032 122.528736,53.2851613 127.011494,55.0651613 C127.988506,55.4096774 128.793103,55.8690323 129.827586,55.5245161 C139.54023,53.4 149.310345,51.8496774 159.310345,52.1367742 C148.793103,42.5477419 136.264368,36.1741935 122.873563,31.5806452 C114.08046,28.5948387 105,26.4129032 95.8045977,25.1496774 C96.6666667,24.0012903 97.5287356,22.9103226 98.4482759,21.7619355 C101.724138,21.9341935 105.862069,22.1064516 108.505747,19.8096774 C110.229885,18.3167742 110.172414,16.4793548 110.402299,14.4122581 C112.068966,15.8477419 113.218391,17.2258065 114.08046,19.2354839 C116.551724,15.3309677 119.425287,11.4264516 123.045977,8.44064516 C124.367816,7.40709677 125.977011,6.89032258 127.758621,6.54580645 Z" id="Shape" fill="#0D0C0C" fill-rule="nonzero"></path>
                <path d="M97.1264368,11.8858065 C95.6321839,13.8954839 94.4252874,15.8477419 94.6551724,18.4316129 C94.6551724,19.9819355 95.5172414,20.8432258 96.4942529,21.8767742 C95.6896552,22.9677419 94.8275862,24.0587097 94.0229885,25.1496774 C92.5862069,24.2309677 91.2643678,22.8529032 89.6551724,22.2212903 C88.4482759,21.9916129 87.1264368,23.0251613 86.091954,23.4845161 C87.4137931,23.7716129 88.6781609,24.116129 90,24.6329032 C86.7816092,25.4941935 85.1149425,26.4129032 82.816092,28.7096774 C83.1609195,25.2070968 83.6206897,21.8767742 85.6896552,18.8335484 C88.2758621,14.8716129 92.4712644,12.8045161 97.1264368,11.8858065 Z" id="Shape" fill="#0D0C0C" fill-rule="nonzero"></path>
                <path d="M61.6091954,27.3890323 C67.9310345,26.5277419 74.5402299,26.8722581 80.4597701,29.5135484 C76.4367816,28.8245161 72.7586207,28.1354839 68.6781609,29.1116129 C67.0114943,29.5135484 65.7471264,30.5470968 64.2528736,31.1787097 C61.8965517,31.4658065 59.7701149,31.1787097 57.4712644,32.2122581 C55.862069,32.843871 54.8850575,33.9922581 53.6781609,35.1980645 C56.6091954,35.1406452 58.6781609,37.8393548 61.3793103,37.0929032 C63.5057471,36.5187097 63.6781609,34.2793548 65,32.7864516 C65.9195402,32.1548387 67.183908,31.9251613 68.2183908,31.5232258 C68.7356322,33.5329032 69.3103448,35.3129032 68.3333333,37.2651613 C67.2413793,39.6193548 64.2528736,40.9974194 62.0114943,41.8587097 C57.2413793,43.523871 52.3563218,44.5 48.045977,47.4283871 C45.8045977,48.9787097 44.137931,51.2180645 43.908046,53.9741935 C43.6781609,57.1322581 45.1724138,59.716129 46.2643678,62.5296774 C44.3678161,60.1754839 42.9310345,57.6490323 42.9885057,54.5483871 C42.9310345,50.2419355 46.2643678,46.6819355 49.6551724,44.3851613 C52.816092,42.0883871 56.5517241,40.94 59.7701149,38.7580645 C57.5862069,38.2412903 55.1724138,37.2077419 52.9310345,37.6096774 C50.7471264,37.8967742 48.9655172,38.8154839 47.0689655,39.7341935 C47.5862069,37.5522581 47.9885057,35.5425806 49.3678161,33.7625806 C52.183908,29.9729032 57.0689655,28.1354839 61.6091954,27.3890323 Z" id="Shape" fill="#0D0C0C" fill-rule="nonzero"></path>
                <path d="M46.8965517,31.9825806 C45.9770115,33.9348387 45.3448276,35.8296774 43.3908046,37.0354839 C39.8275862,39.16 35.6896552,40.3083871 32.183908,42.4329032 C30,43.7535484 28.9655172,45.9354839 28.3908046,48.3470968 C27.6436782,51.4477419 27.3563218,54.203871 25.1724138,56.7303226 C23.1609195,59.1993548 20.1149425,59.3716129 17.9885057,61.6109677 C16.8965517,62.7019355 16.2643678,64.1374194 15.6321839,65.5154839 C12.2413793,66.1470968 9.13793103,67.4677419 6.14942529,69.0754839 C4.88505747,67.4677419 3.73563218,66.0322581 3.2183908,64.0225806 C2.29885057,60.8070968 3.56321839,57.4193548 5.34482759,54.7780645 C5.97701149,53.8019355 6.95402299,53.2277419 7.93103448,52.7109677 C20.9770115,45.8206452 33.908046,38.8154839 46.8965517,31.9825806 Z" id="Shape" fill="#FFFFFF" fill-rule="nonzero"></path>
                <path d="M63.2183908,33.1309677 C62.4712644,34.4516129 62.1264368,36.2316129 60.3448276,36.4612903 C58.5632184,36.6909677 57.1264368,35.2554839 55.862069,34.2219355 C58.1609195,32.4993548 60.5172414,32.4419355 63.2183908,33.1309677 Z" id="Shape" fill="#0D0C0C" fill-rule="nonzero"></path>
                <path d="M20,53.5148387 C21.4942529,53.8019355 20.8045977,55.0077419 20.3448276,55.9264516 C18.6206897,58.7974194 16.0344828,61.4387097 12.8735632,62.7593548 C11.4942529,63.276129 9.77011494,63.6206452 8.56321839,62.5296774 C7.52873563,61.1516129 8.33333333,59.3141935 9.54022989,58.3380645 C11.4367816,56.7877419 13.5057471,56.7877419 15.8045977,56.6729032 C14.6551724,57.3045161 13.5057471,57.9935484 12.3563218,58.6825806 C13.5632184,58.6251613 14.7701149,58.6825806 16.0344828,58.6251613 C16.6091954,57.8212903 17.0689655,56.9025806 17.5287356,56.0412903 C16.1494253,55.2374194 14.7701149,54.8929032 13.2183908,54.7206452 C15.2873563,54.2612903 17.8735632,53.0554839 20,53.5148387 Z" id="Shape" fill="#0D0C0C" fill-rule="nonzero"></path>
                <path d="M25.9770115,73.3819355 C27.0114943,74.4154839 27.7586207,75.6787097 29.3678161,75.6787097 C31.091954,75.5064516 32.6436782,73.1522581 34.4827586,73.4393548 C37.2413793,73.8412903 39.0229885,76.5974194 40.5747126,78.7219355 C34.7701149,82.3393548 28.045977,84.8083871 21.2068966,82.7987097 C16.6666667,81.5354839 13.6206897,78.4922581 10.5747126,75.0470968 C15.862069,75.7935484 21.0344828,76.0232258 25.9770115,73.3819355 Z" id="Shape" fill="#FFFFFF" fill-rule="nonzero"></path>
            </g>
        </g>
    </g>
</svg>